<svg viewBox="1 1 16 16" fill="none" stroke="black" stroke-width="1" stroke-linecap="round">
    <g stroke-width="1.5">
        <line x1="7" x2="15" y1="4" y2="4"></line>
        <line x1="7" x2="15" y1="9" y2="9"></line>
        <line x1="7" x2="15" y1="14" y2="14"></line>
    </g>
    <polyline points="2.344 2.842 3.492 2.352 3.461 5.69"></polyline>
    <path d="M 2.54 8.06 C 2.6 7.94 2.72 7.74 2.92 7.62 C 3.14 7.5 3.46 7.46 3.72 7.56 C 4 7.64 4.2 7.84 4.3 8.08 C 4.42 8.3 4.32 8.78 4.14 9.08 C 3.98 9.4 3.72 9.54 3.3 9.84 C 2.88 10.14 2.36 10.36 2.54 10.46 C 2.72 10.56 4.52 10.5 4.52 10.5"></path>
    <path d="M 2.5 13.14 L 2.56 13.04 C 2.64 12.92 2.76 12.72 3 12.6 C 3.24 12.48 3.56 12.48 3.84 12.62 C 4.1 12.74 4.3 13 4.36 13.2 C 4.44 13.42 4.38 13.6 4.2 13.72 C 4.04 13.84 3.74 13.94 3.74 14.02 C 3.74 14.1 4.04 14.18 4.22 14.32 C 4.38 14.44 4.42 14.6 4.36 14.82 C 4.28 15.04 4.1 15.3 3.82 15.42 C 3.56 15.54 3.22 15.52 2.98 15.4 C 2.74 15.28 2.62 15.06 2.56 14.94 L 2.5 14.84"></path>
</svg>