<svg viewBox="0 0 24 24" fill="none" stroke="black" stroke-width="3px" stroke-linecap="round">
    <line x1="4" y1="12" x2="20" y2="12"></line>
    <path d="M 16.77 5.07 C 16.17 4.47 14.9 3.6 13.7 3.3 C 12.6 3 11.2 2.9 10 3.2 C 8.8 3.4 7.8 3.8 7.1 4.5 C 6.4 5.2 6.1 6.2 6.1 7 C 6 7.7 6.3 8.4 6.7 8.9 C 7.2 9.5 8 10 8.8 10.3 C 9.7 10.7 10.7 11 12 11.4 C 13.2 11.8 14.7 12.4 15.8 13 C 16.9 13.6 17.7 14.3 18 15.1 C 18.4 15.9 18.4 16.7 18.1 17.6 C 17.7 18.5 17 19.3 15.9 19.9 C 14.8 20.5 13.4 20.8 12.1 20.9 C 10.8 20.9 9.7 20.7 8.7 20.2 C 7.7 19.8 6.74 18.94 6.14 18.14"></path>
</svg>